<svg width="14" height="12" viewBox="0 0 14 12" fill="none" xmlns="http://www.w3.org/2000/svg">
<path d="M4.92713 0C5.78088 0 6.20775 0.380597 6.20775 1.14179C6.20775 1.6791 5.89664 2.16418 5.27442 2.59701C4.13127 3.43284 3.55969 4.27612 3.55969 5.12687C3.55969 5.63433 3.89251 6.26119 4.55814 7.00746C5.23824 7.73881 5.57829 8.51493 5.57829 9.33582C5.57829 10.1567 5.3323 10.806 4.84031 11.2836C4.36279 11.7612 3.71886 12 2.90853 12C2.11266 12 1.42532 11.6343 0.846512 10.903C0.282171 10.1716 0 9.32836 0 8.37313C0 5.77612 0.672868 3.63433 2.0186 1.94776C2.6553 1.14179 3.23411 0.619403 3.75504 0.380597C4.29044 0.126866 4.68114 0 4.92713 0ZM12.7194 0C13.5731 0 14 0.380597 14 1.14179C14 1.6791 13.6889 2.16418 13.0667 2.59701C11.9235 3.43284 11.3519 4.27612 11.3519 5.12687C11.3519 5.63433 11.6848 6.26119 12.3504 7.00746C13.0305 7.73881 13.3705 8.51493 13.3705 9.33582C13.3705 10.1567 13.1245 10.806 12.6326 11.2836C12.155 11.7612 11.5111 12 10.7008 12C9.90491 12 9.21757 11.6343 8.63876 10.903C8.07442 10.1716 7.79225 9.32836 7.79225 8.37313C7.79225 5.77612 8.46512 3.63433 9.81085 1.94776C10.4475 1.14179 11.0264 0.619403 11.5473 0.380597C12.0827 0.126866 12.4734 0 12.7194 0Z" fill="white"/>
</svg>
