<svg width="13" height="15" viewBox="0 0 13 15" fill="none" xmlns="http://www.w3.org/2000/svg">
<path d="M8.05197 14.9815H1.00988C0.450839 14.9815 0 14.5305 0 13.9712C0 13.412 0.450839 12.9609 1.00988 12.9609H8.05197C8.61101 12.9609 9.06185 13.412 9.06185 13.9712C9.06185 14.5215 8.61101 14.9815 8.05197 14.9815Z" fill="white"/>
<path d="M5.23845 11.0321C5.17533 11.0321 5.11221 11.0321 5.05811 11.0231L4.52612 10.969L4.42694 10.4458C4.39989 10.2924 3.79577 6.76541 5.8606 3.78863C7.18607 1.88529 9.28698 0.6585 12.1092 0.16237L13.0019 0L12.9388 0.902055C12.9297 1.01932 12.7404 3.75255 11.5592 6.21516L11.1985 6.96386L10.5133 6.49479C10.2067 6.2783 9.90913 6.07083 9.6206 5.85434C9.44026 5.71903 9.25993 5.59274 9.07057 5.45743C8.74597 5.23192 8.67384 4.78991 8.89926 4.46517C9.12467 4.14043 9.5665 4.06827 9.8911 4.29378C10.0805 4.42909 10.2698 4.5644 10.4592 4.69971C10.5133 4.73579 10.5674 4.77187 10.6124 4.81697C11.0543 3.68038 11.2797 2.53477 11.4059 1.75901C5.90569 3.21131 5.65322 7.81179 5.7524 9.53472C6.74425 9.30018 8.40333 8.47029 9.07057 7.48705C9.28698 7.16232 9.7288 7.07211 10.0534 7.2886C10.378 7.5051 10.4682 7.9471 10.2518 8.27184C9.18779 9.86848 6.53686 11.0321 5.23845 11.0321Z" fill="white"/>
<path d="M3.973 12.2866C3.87382 12.2866 3.77463 12.2505 3.68446 12.1874C3.47708 12.025 3.44101 11.7273 3.5943 11.5198L4.74844 10.0224C4.91074 9.81496 5.2083 9.77888 5.41568 9.93223C5.62307 10.0946 5.65914 10.3923 5.50585 10.5997L4.3517 12.0972C4.25252 12.2234 4.10825 12.2866 3.973 12.2866Z" fill="white"/>
</svg>
