<svg width="17" height="17" viewBox="0 0 17 17" fill="none" xmlns="http://www.w3.org/2000/svg">
<path d="M1.176 11.112C0.849333 11.112 0.616 11 0.476 10.776C0.336 10.552 0.340667 10.2813 0.49 9.964L4.186 1.774C4.30733 1.50333 4.452 1.312 4.62 1.2C4.79733 1.07867 4.998 1.018 5.222 1.018C5.43667 1.018 5.628 1.07867 5.796 1.2C5.97333 1.312 6.12267 1.50333 6.244 1.774L9.954 9.964C10.1033 10.2907 10.1127 10.566 9.982 10.79C9.85133 11.0047 9.62733 11.112 9.31 11.112C9.04867 11.112 8.84333 11.0513 8.694 10.93C8.554 10.7993 8.428 10.6033 8.316 10.342L7.616 8.718H2.8L2.114 10.342C1.99267 10.6127 1.86667 10.8087 1.736 10.93C1.60533 11.0513 1.41867 11.112 1.176 11.112ZM5.194 3.076L3.416 7.29H7L5.222 3.076H5.194Z" fill="white"/>
<path d="M7 13.5652L9.57142 16L16 9" stroke="white" stroke-width="2" stroke-linecap="round" stroke-linejoin="round"/>
</svg>
