<svg width="184" height="35" viewBox="0 0 184 35" fill="none" xmlns="http://www.w3.org/2000/svg">
<path d="M0 32V3C0 1.34315 1.34315 0 3 0H179.282C180.908 0 181.855 1.83723 180.911 3.16113L170.349 17.973L181.368 31.7509C182.415 33.0605 181.482 35 179.806 35H3C1.34315 35 0 33.6569 0 32Z" fill="#DC9E00"/>
<path d="M19.8594 16.9531H20.6562C21.401 16.9531 21.9583 16.8073 22.3281 16.5156C22.6979 16.2188 22.8828 15.7891 22.8828 15.2266C22.8828 14.6589 22.7266 14.2396 22.4141 13.9688C22.1068 13.6979 21.6224 13.5625 20.9609 13.5625H19.8594V16.9531ZM25.3281 15.1406C25.3281 16.3698 24.9427 17.3099 24.1719 17.9609C23.4062 18.612 22.3151 18.9375 20.8984 18.9375H19.8594V23H17.4375V11.5781H21.0859C22.4714 11.5781 23.5234 11.8776 24.2422 12.4766C24.9661 13.0703 25.3281 13.9583 25.3281 15.1406ZM32.1719 14.1016C32.4948 14.1016 32.763 14.125 32.9766 14.1719L32.7969 16.4062C32.6042 16.3542 32.3698 16.3281 32.0938 16.3281C31.3333 16.3281 30.7396 16.5234 30.3125 16.9141C29.8906 17.3047 29.6797 17.8516 29.6797 18.5547V23H27.2969V14.2656H29.1016L29.4531 15.7344H29.5703C29.8411 15.2448 30.2057 14.8516 30.6641 14.5547C31.1276 14.2526 31.6302 14.1016 32.1719 14.1016ZM38.1797 15.7969C37.6745 15.7969 37.2786 15.9583 36.9922 16.2812C36.7057 16.599 36.5417 17.0521 36.5 17.6406H39.8438C39.8333 17.0521 39.6797 16.599 39.3828 16.2812C39.0859 15.9583 38.6849 15.7969 38.1797 15.7969ZM38.5156 23.1562C37.1094 23.1562 36.0104 22.7682 35.2188 21.9922C34.4271 21.2161 34.0312 20.1172 34.0312 18.6953C34.0312 17.2318 34.3958 16.1016 35.125 15.3047C35.8594 14.5026 36.8724 14.1016 38.1641 14.1016C39.3984 14.1016 40.3594 14.4531 41.0469 15.1562C41.7344 15.8594 42.0781 16.8307 42.0781 18.0703V19.2266H36.4453C36.4714 19.9036 36.6719 20.4323 37.0469 20.8125C37.4219 21.1927 37.9479 21.3828 38.625 21.3828C39.151 21.3828 39.6484 21.3281 40.1172 21.2188C40.5859 21.1094 41.0755 20.9349 41.5859 20.6953V22.5391C41.1693 22.7474 40.724 22.901 40.25 23C39.776 23.1042 39.1979 23.1562 38.5156 23.1562ZM51.8359 23H49.4531V17.8984C49.4531 17.2682 49.3464 16.7969 49.1328 16.4844C48.9245 16.1667 48.5938 16.0078 48.1406 16.0078C47.5312 16.0078 47.0885 16.2318 46.8125 16.6797C46.5365 17.1276 46.3984 17.8646 46.3984 18.8906V23H44.0156V14.2656H45.8359L46.1562 15.3828H46.2891C46.5234 14.9818 46.862 14.6693 47.3047 14.4453C47.7474 14.2161 48.2552 14.1016 48.8281 14.1016C50.1354 14.1016 51.0208 14.5286 51.4844 15.3828H51.6953C51.9297 14.9766 52.2734 14.6615 52.7266 14.4375C53.1849 14.2135 53.7005 14.1016 54.2734 14.1016C55.263 14.1016 56.0104 14.3568 56.5156 14.8672C57.026 15.3724 57.2812 16.1849 57.2812 17.3047V23H54.8906V17.8984C54.8906 17.2682 54.7839 16.7969 54.5703 16.4844C54.362 16.1667 54.0312 16.0078 53.5781 16.0078C52.9948 16.0078 52.5573 16.2161 52.2656 16.6328C51.9792 17.0495 51.8359 17.7109 51.8359 18.6172V23ZM59.6328 12.0078C59.6328 11.2318 60.0651 10.8438 60.9297 10.8438C61.7943 10.8438 62.2266 11.2318 62.2266 12.0078C62.2266 12.3776 62.1172 12.6667 61.8984 12.875C61.6849 13.0781 61.362 13.1797 60.9297 13.1797C60.0651 13.1797 59.6328 12.7891 59.6328 12.0078ZM62.1172 23H59.7344V14.2656H62.1172V23ZM70.8125 23L70.4922 21.8828H70.3672C70.112 22.2891 69.75 22.6042 69.2812 22.8281C68.8125 23.0469 68.2786 23.1562 67.6797 23.1562C66.6536 23.1562 65.8802 22.8828 65.3594 22.3359C64.8385 21.7839 64.5781 20.9922 64.5781 19.9609V14.2656H66.9609V19.3672C66.9609 19.9974 67.0729 20.4714 67.2969 20.7891C67.5208 21.1016 67.8776 21.2578 68.3672 21.2578C69.0339 21.2578 69.5156 21.0365 69.8125 20.5938C70.1094 20.1458 70.2578 19.4062 70.2578 18.375V14.2656H72.6406V23H70.8125ZM82.9609 23H80.5781V17.8984C80.5781 17.2682 80.4714 16.7969 80.2578 16.4844C80.0495 16.1667 79.7188 16.0078 79.2656 16.0078C78.6562 16.0078 78.2135 16.2318 77.9375 16.6797C77.6615 17.1276 77.5234 17.8646 77.5234 18.8906V23H75.1406V14.2656H76.9609L77.2812 15.3828H77.4141C77.6484 14.9818 77.987 14.6693 78.4297 14.4453C78.8724 14.2161 79.3802 14.1016 79.9531 14.1016C81.2604 14.1016 82.1458 14.5286 82.6094 15.3828H82.8203C83.0547 14.9766 83.3984 14.6615 83.8516 14.4375C84.3099 14.2135 84.8255 14.1016 85.3984 14.1016C86.388 14.1016 87.1354 14.3568 87.6406 14.8672C88.151 15.3724 88.4062 16.1849 88.4062 17.3047V23H86.0156V17.8984C86.0156 17.2682 85.9089 16.7969 85.6953 16.4844C85.487 16.1667 85.1562 16.0078 84.7031 16.0078C84.1198 16.0078 83.6823 16.2161 83.3906 16.6328C83.1042 17.0495 82.9609 17.7109 82.9609 18.6172V23ZM99.875 14.1016C100.906 14.1016 101.714 14.5052 102.297 15.3125C102.88 16.1146 103.172 17.2161 103.172 18.6172C103.172 20.0599 102.87 21.1771 102.266 21.9688C101.667 22.7604 100.849 23.1562 99.8125 23.1562C98.7865 23.1562 97.9818 22.7839 97.3984 22.0391H97.2344L96.8359 23H95.0156V10.8438H97.3984V13.6719C97.3984 14.0312 97.3672 14.6068 97.3047 15.3984H97.3984C97.9557 14.5339 98.7812 14.1016 99.875 14.1016ZM99.1094 16.0078C98.5208 16.0078 98.0911 16.1901 97.8203 16.5547C97.5495 16.9141 97.4089 17.5104 97.3984 18.3438V18.6016C97.3984 19.5391 97.5365 20.2109 97.8125 20.6172C98.0938 21.0234 98.5365 21.2266 99.1406 21.2266C99.6302 21.2266 100.018 21.0026 100.305 20.5547C100.596 20.1016 100.742 19.4453 100.742 18.5859C100.742 17.7266 100.596 17.0833 100.305 16.6562C100.013 16.224 99.6146 16.0078 99.1094 16.0078ZM108.758 15.7969C108.253 15.7969 107.857 15.9583 107.57 16.2812C107.284 16.599 107.12 17.0521 107.078 17.6406H110.422C110.411 17.0521 110.258 16.599 109.961 16.2812C109.664 15.9583 109.263 15.7969 108.758 15.7969ZM109.094 23.1562C107.688 23.1562 106.589 22.7682 105.797 21.9922C105.005 21.2161 104.609 20.1172 104.609 18.6953C104.609 17.2318 104.974 16.1016 105.703 15.3047C106.438 14.5026 107.451 14.1016 108.742 14.1016C109.977 14.1016 110.938 14.4531 111.625 15.1562C112.312 15.8594 112.656 16.8307 112.656 18.0703V19.2266H107.023C107.049 19.9036 107.25 20.4323 107.625 20.8125C108 21.1927 108.526 21.3828 109.203 21.3828C109.729 21.3828 110.227 21.3281 110.695 21.2188C111.164 21.1094 111.654 20.9349 112.164 20.6953V22.5391C111.747 22.7474 111.302 22.901 110.828 23C110.354 23.1042 109.776 23.1562 109.094 23.1562ZM122.656 23H120.273V17.8984C120.273 17.2682 120.161 16.7969 119.938 16.4844C119.714 16.1667 119.357 16.0078 118.867 16.0078C118.201 16.0078 117.719 16.2318 117.422 16.6797C117.125 17.1224 116.977 17.8594 116.977 18.8906V23H114.594V14.2656H116.414L116.734 15.3828H116.867C117.133 14.9609 117.497 14.6432 117.961 14.4297C118.43 14.2109 118.961 14.1016 119.555 14.1016C120.57 14.1016 121.341 14.3776 121.867 14.9297C122.393 15.4766 122.656 16.2682 122.656 17.3047V23ZM128.727 15.7969C128.221 15.7969 127.826 15.9583 127.539 16.2812C127.253 16.599 127.089 17.0521 127.047 17.6406H130.391C130.38 17.0521 130.227 16.599 129.93 16.2812C129.633 15.9583 129.232 15.7969 128.727 15.7969ZM129.062 23.1562C127.656 23.1562 126.557 22.7682 125.766 21.9922C124.974 21.2161 124.578 20.1172 124.578 18.6953C124.578 17.2318 124.943 16.1016 125.672 15.3047C126.406 14.5026 127.419 14.1016 128.711 14.1016C129.945 14.1016 130.906 14.4531 131.594 15.1562C132.281 15.8594 132.625 16.8307 132.625 18.0703V19.2266H126.992C127.018 19.9036 127.219 20.4323 127.594 20.8125C127.969 21.1927 128.495 21.3828 129.172 21.3828C129.698 21.3828 130.195 21.3281 130.664 21.2188C131.133 21.1094 131.622 20.9349 132.133 20.6953V22.5391C131.716 22.7474 131.271 22.901 130.797 23C130.323 23.1042 129.745 23.1562 129.062 23.1562ZM139.391 16.0547H137.328V23H134.945V16.0547H133.633V14.9062L134.945 14.2656V13.625C134.945 12.6302 135.19 11.9036 135.68 11.4453C136.169 10.987 136.953 10.7578 138.031 10.7578C138.854 10.7578 139.586 10.8802 140.227 11.125L139.617 12.875C139.138 12.724 138.695 12.6484 138.289 12.6484C137.951 12.6484 137.706 12.75 137.555 12.9531C137.404 13.151 137.328 13.4062 137.328 13.7188V14.2656H139.391V16.0547ZM140.656 12.0078C140.656 11.2318 141.089 10.8438 141.953 10.8438C142.818 10.8438 143.25 11.2318 143.25 12.0078C143.25 12.3776 143.141 12.6667 142.922 12.875C142.708 13.0781 142.385 13.1797 141.953 13.1797C141.089 13.1797 140.656 12.7891 140.656 12.0078ZM143.141 23H140.758V14.2656H143.141V23ZM149.32 21.2578C149.737 21.2578 150.237 21.1667 150.82 20.9844V22.7578C150.227 23.0234 149.497 23.1562 148.633 23.1562C147.68 23.1562 146.984 22.9167 146.547 22.4375C146.115 21.9531 145.898 21.2292 145.898 20.2656V16.0547H144.758V15.0469L146.07 14.25L146.758 12.4062H148.281V14.2656H150.727V16.0547H148.281V20.2656C148.281 20.6042 148.375 20.8542 148.562 21.0156C148.755 21.1771 149.008 21.2578 149.32 21.2578ZM158.688 20.4062C158.688 21.3021 158.375 21.9844 157.75 22.4531C157.13 22.9219 156.201 23.1562 154.961 23.1562C154.326 23.1562 153.784 23.112 153.336 23.0234C152.888 22.9401 152.469 22.8151 152.078 22.6484V20.6797C152.521 20.888 153.018 21.0625 153.57 21.2031C154.128 21.3438 154.617 21.4141 155.039 21.4141C155.904 21.4141 156.336 21.1641 156.336 20.6641C156.336 20.4766 156.279 20.3255 156.164 20.2109C156.049 20.0911 155.852 19.9583 155.57 19.8125C155.289 19.6615 154.914 19.487 154.445 19.2891C153.773 19.0078 153.279 18.7474 152.961 18.5078C152.648 18.2682 152.419 17.9948 152.273 17.6875C152.133 17.375 152.062 16.9922 152.062 16.5391C152.062 15.763 152.362 15.1641 152.961 14.7422C153.565 14.3151 154.419 14.1016 155.523 14.1016C156.576 14.1016 157.599 14.3307 158.594 14.7891L157.875 16.5078C157.438 16.3203 157.029 16.1667 156.648 16.0469C156.268 15.9271 155.88 15.8672 155.484 15.8672C154.781 15.8672 154.43 16.0573 154.43 16.4375C154.43 16.651 154.542 16.8359 154.766 16.9922C154.995 17.1484 155.492 17.3802 156.258 17.6875C156.94 17.9635 157.44 18.2214 157.758 18.4609C158.076 18.7005 158.31 18.9766 158.461 19.2891C158.612 19.6016 158.688 19.974 158.688 20.4062Z" fill="white"/>
</svg>
