<svg width="14" height="14" viewBox="0 0 14 14" fill="none" xmlns="http://www.w3.org/2000/svg">
<path d="M12.3428 13.0186H9.99211C9.64184 13.0186 9.36162 12.7607 9.36162 12.4384C9.36162 12.1161 9.64184 11.8582 9.99211 11.8582H12.3506C12.5608 11.8582 12.732 11.7007 12.732 11.5073V2.23911C12.732 2.146 12.6464 2.07437 12.553 2.07437H7.42346C7.07319 2.07437 6.79297 1.81653 6.79297 1.49422C6.79297 1.17191 7.07319 0.914062 7.42346 0.914062H12.553C13.3547 0.914062 14.0008 1.50854 14.0008 2.24627V11.5145C13.9852 12.3381 13.2535 13.0186 12.3428 13.0186Z" fill="white"/>
<path d="M10.6943 14.0002C10.5464 14.0002 10.4063 13.9429 10.3129 13.8211L9.36326 12.6465C9.23094 12.4817 9.23872 12.2526 9.38661 12.1021L10.3362 11.0851C10.5075 10.8989 10.8033 10.8774 11.0056 11.0349C11.208 11.1925 11.2236 11.4647 11.0601 11.6509L10.3596 12.403L11.0835 13.2983C11.2392 13.4917 11.2002 13.7638 10.9901 13.9071C10.8889 13.9715 10.7877 14.0002 10.6943 14.0002Z" fill="white"/>
<path d="M3.35473 3.06334C3.25354 3.06334 3.16013 3.03468 3.07451 2.97739C2.86435 2.83414 2.81765 2.56196 2.98111 2.36858L3.705 1.47328L3.00446 0.721221C2.83321 0.534998 2.85657 0.262826 3.05894 0.105252C3.26132 -0.0523212 3.55711 -0.0308341 3.72835 0.155389L4.67797 1.17245C4.82586 1.33003 4.83365 1.55206 4.70132 1.7168L3.7517 2.89144C3.64273 2.99887 3.50262 3.06334 3.35473 3.06334Z" fill="white"/>
<path d="M6.59287 13.0179H1.64238C0.739461 13.0179 0 12.3375 0 11.5066V2.23846C0 1.50073 0.646055 0.90625 1.44779 0.90625H4.04757C4.39784 0.90625 4.67806 1.1641 4.67806 1.48641C4.67806 1.80872 4.39784 2.06656 4.04757 2.06656H1.44779C1.3466 2.06656 1.26876 2.14535 1.26876 2.2313V11.4995C1.26876 11.6929 1.44 11.8504 1.65016 11.8504H6.60066C6.95093 11.8504 7.23114 12.1083 7.23114 12.4306C7.23114 12.7529 6.94314 13.0179 6.59287 13.0179Z" fill="white"/>
<path d="M9.51061 5.39859H3.48596C3.13569 5.39859 2.85547 5.14075 2.85547 4.81844C2.85547 4.49613 3.13569 4.23828 3.48596 4.23828H9.51061C9.86088 4.23828 10.1411 4.49613 10.1411 4.81844C10.1411 5.14075 9.86088 5.39859 9.51061 5.39859Z" fill="white"/>
<path d="M9.51061 7.49625H3.48596C3.13569 7.49625 2.85547 7.2384 2.85547 6.91609C2.85547 6.59378 3.13569 6.33594 3.48596 6.33594H9.51061C9.86088 6.33594 10.1411 6.59378 10.1411 6.91609C10.1411 7.2384 9.86088 7.49625 9.51061 7.49625Z" fill="white"/>
<path d="M6.45158 9.59586H3.48596C3.13569 9.59586 2.85547 9.33801 2.85547 9.0157C2.85547 8.69339 3.13569 8.43555 3.48596 8.43555H6.45158C6.80185 8.43555 7.08207 8.69339 7.08207 9.0157C7.08207 9.33085 6.80185 9.59586 6.45158 9.59586Z" fill="white"/>
</svg>
