<svg width="14" height="14" viewBox="0 0 14 14" fill="none" xmlns="http://www.w3.org/2000/svg">
<path d="M7.5266 13.9996H2.21606C0.993403 13.9996 0 13.0304 0 11.8375V2.16996C0 0.97705 0.993403 0.0078125 2.21606 0.0078125H7.5266C8.74925 0.0078125 9.74266 0.97705 9.74266 2.16996V2.17824C9.74266 2.55103 9.4285 2.85754 9.04642 2.85754C8.66434 2.85754 8.35019 2.55103 8.35019 2.17824V2.16996C8.35019 1.72262 7.9766 1.3664 7.5266 1.3664H2.21606C1.75756 1.3664 1.39247 1.7309 1.39247 2.16996V11.8375C1.39247 12.2848 1.76605 12.641 2.21606 12.641H7.5266C7.98509 12.641 8.35019 12.2765 8.35019 11.8375V10.5203C8.35019 10.1475 8.66434 9.84101 9.04642 9.84101C9.4285 9.84101 9.74266 10.1475 9.74266 10.5203V11.8375C9.74266 13.0304 8.74925 13.9996 7.5266 13.9996Z" fill="white"/>
<path d="M10.9505 9.33469C9.26934 9.33469 7.90234 8.00095 7.90234 6.3607C7.90234 4.72046 9.26934 3.38672 10.9505 3.38672C12.6316 3.38672 13.9986 4.72046 13.9986 6.3607C13.9986 8.00095 12.6316 9.33469 10.9505 9.33469ZM10.9505 4.6459C9.98255 4.6459 9.19292 5.41632 9.19292 6.3607C9.19292 7.30509 9.98255 8.07551 10.9505 8.07551C11.9184 8.07551 12.708 7.30509 12.708 6.3607C12.708 5.41632 11.9269 4.6459 10.9505 4.6459Z" fill="white"/>
<path d="M13.7743 9.44291L12.6196 8.00977C12.3649 8.25829 12.0422 8.44882 11.6602 8.57308L12.8998 10.1139C13.0102 10.2465 13.1715 10.321 13.3328 10.321C13.4517 10.321 13.5706 10.2796 13.6724 10.205C13.9187 10.0145 13.9611 9.67487 13.7743 9.44291Z" fill="white"/>
</svg>
