<svg width="14" height="12" viewBox="0 0 14 12" fill="none" xmlns="http://www.w3.org/2000/svg">
<path d="M12.968 2.38461H1.04048C0.465257 2.38461 0 1.85147 0 1.19231C0 0.533145 0.465257 0 1.04048 0H12.9595C13.5347 0 14 0.533145 14 1.19231C14 1.85147 13.5347 2.38461 12.968 2.38461Z" fill="white"/>
<path d="M12.968 7.19321H1.04048C0.465257 7.19321 0 6.66006 0 6.0009C0 5.34174 0.465257 4.80859 1.04048 4.80859H12.9595C13.5347 4.80859 14 5.34174 14 6.0009C14 6.66006 13.5347 7.19321 12.968 7.19321Z" fill="white"/>
<path d="M7.95166 11.9998H1.04048C0.465257 11.9998 0 11.4667 0 10.8075C0 10.1484 0.465257 9.61523 1.04048 9.61523H7.9432C8.51843 9.61523 8.98368 10.1484 8.98368 10.8075C8.98368 11.4667 8.52689 11.9998 7.95166 11.9998Z" fill="white"/>
</svg>
